<?xml version="1.0" standalone="no"?>
<!DOCTYPE svg PUBLIC "-//W3C//DTD SVG 20010904//EN"
 "http://www.w3.org/TR/2001/REC-SVG-20010904/DTD/svg10.dtd">
<svg version="1.0" xmlns="http://www.w3.org/2000/svg"
 width="260.000000pt" height="260.000000pt" viewBox="0 0 260.000000 260.000000"
 preserveAspectRatio="xMidYMid meet">
<metadata>
Created by potrace 1.14, written by Peter Selinger 2001-2017
</metadata>
<g transform="translate(0.000000,260.000000) scale(0.100000,-0.100000)"
fill="#000000" stroke="none">
<path d="M0 1300 l0 -1300 1300 0 1300 0 0 1300 0 1300 -69 0 c-67 0 -69 -1
-74 -28 -9 -43 -48 -57 -102 -36 -41 15 -44 15 -84 -6 -23 -11 -51 -36 -62
-54 -12 -21 -34 -39 -59 -49 -39 -15 -40 -16 -40 -66 0 -27 -5 -53 -11 -57 -6
-3 -19 -20 -29 -36 l-18 -29 35 -52 c35 -52 70 -93 129 -151 18 -17 39 -48 48
-69 9 -22 24 -41 35 -44 13 -3 24 -23 36 -69 11 -42 26 -71 42 -84 20 -16 27
-37 43 -123 10 -57 28 -123 40 -146 46 -91 46 -342 -1 -417 -11 -18 -27 -77
-36 -134 -14 -84 -22 -108 -44 -133 -15 -16 -34 -55 -43 -86 -9 -32 -24 -61
-36 -68 -11 -7 -28 -30 -39 -51 -11 -21 -37 -56 -58 -79 -21 -22 -50 -53 -64
-69 -47 -53 -121 -115 -155 -131 -19 -9 -36 -25 -40 -35 -3 -11 -25 -24 -59
-33 -29 -9 -70 -29 -90 -45 -26 -20 -56 -32 -107 -40 -68 -12 -97 -22 -162
-57 -20 -11 -70 -17 -170 -20 -166 -6 -258 5 -308 39 -23 16 -63 28 -119 37
-69 10 -89 18 -114 41 -17 16 -55 36 -87 45 -40 11 -59 22 -63 36 -4 12 -22
27 -40 34 -51 22 -285 260 -285 291 0 8 -15 30 -33 48 -24 23 -37 49 -46 89
-8 38 -20 63 -36 75 -26 21 -38 63 -50 171 -3 36 -17 98 -31 139 -31 95 -32
200 -5 271 11 27 27 98 36 157 19 131 23 146 45 161 17 12 28 35 50 110 7 23
24 50 40 62 16 11 31 34 35 53 4 19 21 45 41 61 19 16 34 33 34 38 0 6 28 36
63 69 34 32 76 72 92 88 17 17 42 34 58 37 15 4 38 20 51 35 16 19 44 34 82
45 33 10 70 27 84 40 31 28 48 33 165 50 57 8 112 22 138 36 35 19 58 22 147
23 94 0 111 -3 160 -27 46 -22 70 -27 145 -28 50 -2 112 -1 138 1 40 3 52 -1
75 -23 25 -24 71 -47 93 -47 10 0 39 60 53 107 16 53 -62 80 -137 48 -20 -8
-46 -15 -59 -15 -29 0 -78 48 -78 77 l0 23 -845 0 -845 0 0 -1300z"/>
<path d="M1193 2361 c-29 -4 -65 -16 -80 -27 -41 -30 -60 -36 -147 -44 -68 -6
-83 -11 -100 -32 -12 -14 -45 -33 -74 -43 -34 -11 -60 -27 -74 -45 -12 -16
-34 -32 -51 -36 -17 -3 -36 -17 -45 -33 -8 -15 -28 -35 -44 -44 -15 -9 -33
-27 -40 -41 -6 -14 -20 -28 -31 -32 -11 -3 -29 -29 -42 -59 -13 -29 -28 -55
-33 -56 -5 -2 -24 -32 -41 -66 -17 -35 -36 -63 -41 -63 -18 0 -37 -55 -49
-139 -7 -45 -22 -102 -34 -125 -19 -35 -22 -61 -25 -172 -4 -135 -2 -143 44
-227 9 -16 19 -67 24 -113 6 -69 12 -89 31 -110 13 -14 33 -51 44 -82 13 -35
29 -61 41 -66 12 -5 27 -25 33 -43 15 -40 166 -197 201 -208 14 -4 31 -16 38
-26 7 -10 31 -24 53 -31 23 -6 50 -24 62 -39 23 -32 48 -43 132 -59 33 -7 69
-20 80 -30 38 -33 84 -40 269 -40 187 0 247 9 281 40 12 11 49 23 87 30 85 13
112 24 130 49 8 11 32 26 55 34 65 22 245 183 296 264 14 23 31 44 36 47 5 4
17 29 26 56 9 28 25 55 36 60 28 15 45 56 59 140 7 41 21 86 32 101 28 38 37
95 37 239 1 141 -9 195 -43 248 -15 24 -26 60 -31 102 -7 69 -15 89 -51 133
-13 15 -28 46 -34 68 -7 26 -19 44 -35 51 -14 6 -29 25 -35 43 -13 41 -182
205 -210 205 -11 0 -28 9 -38 21 -9 12 -37 30 -62 41 -25 10 -59 33 -76 49
-27 26 -46 33 -125 46 -58 10 -102 22 -114 33 -35 32 -193 47 -322 31z m-67
-243 c15 -29 40 -69 55 -88 16 -19 29 -40 29 -47 0 -6 11 -24 24 -40 13 -15
40 -58 60 -95 38 -68 52 -78 112 -78 20 0 38 -9 52 -25 34 -39 60 -31 77 25 4
14 13 32 20 40 7 8 16 31 20 50 11 54 55 140 83 158 13 9 38 29 55 45 16 15
34 27 38 27 17 0 9 -109 -11 -159 -31 -79 -50 -215 -47 -330 3 -98 4 -104 28
-117 13 -7 48 -13 78 -14 44 0 66 7 118 36 53 29 76 36 126 37 64 2 130 -18
124 -36 -2 -6 -24 -23 -49 -37 -26 -14 -54 -32 -65 -41 -10 -9 -37 -26 -59
-38 -23 -11 -50 -28 -59 -38 -10 -10 -48 -34 -84 -53 -65 -35 -66 -36 -69 -80
-2 -34 -11 -53 -34 -77 -37 -38 -32 -58 18 -79 20 -8 39 -24 42 -36 4 -18 10
-20 57 -14 41 5 56 2 66 -10 7 -8 27 -21 45 -29 18 -7 39 -26 47 -42 8 -15 27
-38 42 -51 14 -13 25 -28 22 -35 -7 -23 -92 -19 -169 7 -40 14 -113 32 -162
41 -75 14 -99 15 -147 5 -32 -7 -69 -10 -82 -8 -22 4 -26 -1 -44 -56 -19 -55
-19 -64 -6 -101 7 -22 26 -58 41 -79 24 -35 27 -49 27 -117 0 -67 -3 -82 -22
-100 l-21 -22 -22 44 c-13 24 -40 68 -61 98 -22 30 -39 59 -39 64 0 6 -10 21
-22 34 -13 13 -39 54 -58 91 l-36 67 -49 3 c-35 2 -60 11 -83 29 -28 21 -36
23 -43 12 -5 -8 -9 -17 -9 -21 0 -3 -11 -20 -25 -36 -13 -16 -29 -49 -34 -73
-20 -89 -65 -169 -96 -169 -6 0 -24 -13 -40 -30 -20 -21 -32 -27 -40 -20 -16
14 -8 91 16 153 20 49 51 217 51 274 0 17 -6 47 -12 66 -10 25 -10 42 -2 65
l11 32 -51 15 c-83 24 -119 17 -196 -39 -47 -35 -129 -44 -178 -20 -21 11 -40
24 -42 31 -2 7 23 25 55 42 33 16 65 37 73 46 7 9 32 26 54 37 23 11 50 28 61
38 11 10 42 30 69 44 72 38 74 41 69 89 -4 36 -1 48 21 74 14 17 26 36 26 41
0 13 -87 59 -150 79 -88 27 -134 57 -155 96 -11 21 -28 43 -37 48 -10 6 -18
17 -18 24 0 22 79 19 139 -5 27 -10 105 -28 172 -40 97 -16 130 -18 161 -9 22
6 58 7 79 4 38 -7 40 -5 54 29 26 61 19 109 -26 194 -37 70 -41 82 -37 138 3
52 27 114 43 114 3 0 17 -24 31 -52z"/>
<path d="M1320 1662 c-14 -2 -52 -14 -85 -27 -44 -17 -72 -22 -106 -18 -42 5
-48 3 -72 -27 -20 -24 -27 -42 -27 -76 0 -36 -5 -48 -27 -67 -66 -55 -68 -59
-63 -132 1 -16 11 -51 22 -77 19 -46 21 -91 4 -129 -5 -10 2 -27 19 -48 23
-27 33 -31 77 -31 45 0 53 -3 86 -41 20 -22 53 -47 72 -55 33 -14 38 -13 88
12 48 25 60 26 131 21 72 -6 80 -4 99 16 15 15 22 38 24 77 3 50 6 56 42 80
21 15 42 34 47 43 16 28 13 105 -5 131 -11 18 -16 49 -16 108 -1 107 -19 132
-102 142 -50 6 -59 11 -83 46 -27 40 -74 59 -125 52z m-3 -143 c23 -7 42 -6
69 6 20 8 40 12 45 9 10 -6 12 -35 3 -58 -5 -14 -9 -14 -34 -1 -18 9 -57 15
-104 15 -41 0 -77 4 -81 9 -8 14 37 42 55 35 8 -3 29 -10 47 -15z m-193 -85
c14 -5 14 -9 1 -34 -9 -18 -15 -58 -15 -107 0 -91 -12 -122 -31 -80 -10 21
-10 38 0 79 10 46 9 56 -8 91 -11 22 -18 44 -15 49 6 9 45 11 68 2z m405 -129
c-18 -40 -18 -47 -5 -87 17 -47 10 -61 -25 -56 -18 2 -23 8 -21 23 2 11 6 56
9 100 6 108 8 113 37 86 l24 -23 -19 -43z m-313 -189 c24 -8 61 -11 95 -8 31
2 65 0 75 -6 16 -9 14 -11 -13 -26 -28 -14 -34 -14 -72 1 -39 15 -44 15 -77 0
-50 -24 -64 -22 -64 11 0 24 7 42 15 42 2 0 20 -6 41 -14z"/>
</g>
</svg>
